# xmcd CD database file
# Copyright (C) 1993-1998 Ti Kan
# 
# Track frame offsets:
#     150
#     14812
#     28662
#     44967
#     55385
#     69860
#     80575
#     92827
#     109342
#     123277
#     132132
#     140455
#     152825
#     170350
# 
# Disc length: 2419 seconds
# 
# Revision: 1
# Processed by: cddbd v1.4b41PL1 Copyright (c) Steve Scherf et al.
# Submitted via: DiscPlay 4.0.4
# 
DISCID=c709710e
DTITLE=Various Artist - Country Music 6
DYEAR=1900
DGENRE=
TTITLE0=After All (Kenny Rogers)
TTITLE1=Take A Heart (Don Fardon)
TTITLE2=Playing With A Tender Heart (The Wilsons)
TTITLE3=Rawhide (Frankie Laine)
TTITLE4=Rockey Top (Mickey Gilley)
TTITLE5=Memphis (Faron Young)
TTITLE6=What Do Lonely People Do? (David Speegle)
TTITLE7=Oh Monah (Bob Wills)
TTITLE8=Things Have Gone To Pieces (George Jones)
TTITLE9=Why Are You Picking On Me? (Willie Nelson)
TTITLE10=Love s Gonna Live Here (Wailon Jennings)
TTITLE11=Password (Kitty Wells)
TTITLE12=When God Made You (Joni Bishop)
TTITLE13=Crying (Waylon Jennings)
EXTD=
EXTT0=
EXTT1=
EXTT2=
EXTT3=
EXTT4=
EXTT5=
EXTT6=
EXTT7=
EXTT8=
EXTT9=
EXTT10=
EXTT11=
EXTT12=
EXTT13=
PLAYORDER=
